<svg width="1066.00625px" height="99.2px" xmlns="http://www.w3.org/2000/svg" viewBox="-283.00312499999995 25.4 1066.00625 99.2" style="background: none;" preserveAspectRatio="xMidYMid"><defs><filter id="editing-extrude-glow"><feFlood flood-color="#ffffff" result="flood-1"></feFlood><feMorphology operator="erode" radius="1" in="SourceAlpha" result="erode"></feMorphology><feComposite operator="in" in="flood-1" in2="erode" result="comp1"></feComposite><feConvolveMatrix order="0,0" divisor="1" in="comp1" result="convolve" kernelMatrix=""></feConvolveMatrix><feOffset dx="0" dy="0" in="convolve" result="extrude"></feOffset><feComposite operator="in" in="flood-1" in2="extrude" result="comp-extrude"></feComposite><feFlood flood-color="#000000" result="flood-2"></feFlood><feComposite operator="in" in="flood-2" in2="SourceAlpha" result="comp2"></feComposite><feMorphology operator="dilate" radius="1" in="comp2" result="dilate"></feMorphology><feOffset dx="0" dy="0" in="dilate" result="offset"></feOffset><feGaussianBlur in="offset" stdDeviation="5.8" result="blur"></feGaussianBlur><feComponentTransfer in="blur" result="shadow"><feFuncA type="linear" slope="0.8" intercept="-0.2"></feFuncA></feComponentTransfer><feMerge><feMergeNode in="shadow"></feMergeNode><feMergeNode in="comp-extrude"></feMergeNode><feMergeNode in="SourceGraphic"></feMergeNode></feMerge></filter></defs><g filter="url(#editing-extrude-glow)"><g transform="translate(-134.40001526474953, 99.22500228881836)"><path d="M33.30-20.75L33.30-20.75L33.30-20.75Q33.30 0.55 10.20 0.55L10.20 0.55L10.20 0.55Q6.50 0.55 0.40-0.35L0.40-0.35L6-29.90L6-29.90Q6.40-31.90 6.65-33.05L6.65-33.05L6.65-33.05Q14.25-33.60 17.63-33.60L17.63-33.60L17.63-33.60Q21-33.60 24.10-32.90L24.10-32.90L24.10-32.90Q27.20-32.20 29.25-30.65L29.25-30.65L29.25-30.65Q33.30-27.60 33.30-20.75ZM23-22.60L23-22.60L23-22.60Q23-30.05 17.65-30.05L17.65-30.05L17.15-30.05L17.15-30.05Q16.90-30.05 16.65-30L16.65-30L11.50-3.15L11.50-3.15Q11.70-3.05 11.90-3.05L11.90-3.05L12.30-3.05L12.30-3.05Q14.15-3.05 16.07-4.20L16.07-4.20L16.07-4.20Q18-5.35 19.50-7.70L19.50-7.70L19.50-7.70Q23-13.15 23-22.60ZM56.10-8.45L56.10-8.45L56.10-8.45Q57.35-7.60 57.35-5.73L57.35-5.73L57.35-5.73Q57.35-3.85 56.40-2.65L56.40-2.65L56.40-2.65Q55.45-1.45 53.90-0.65L53.90-0.65L53.90-0.65Q50.70 1 47.25 1L47.25 1L47.25 1Q43.80 1 41.77 0.25L41.77 0.25L41.77 0.25Q39.75-0.50 38.40-1.90L38.40-1.90L38.40-1.90Q35.75-4.55 35.75-9.40L35.75-9.40L35.75-9.40Q35.75-16.95 39.85-21.55L39.85-21.55L39.85-21.55Q44.25-26.50 51.90-26.50L51.90-26.50L51.90-26.50Q56.65-26.50 59-24.50L59-24.50L59-24.50Q60.75-23 60.75-20.55L60.75-20.55L60.75-20.55Q60.75-11.75 45.55-11.75L45.55-11.75L45.55-11.75Q45.35-10.45 45.35-9.35L45.35-9.35L45.35-9.35Q45.35-7.05 46.38-6.18L46.38-6.18L46.38-6.18Q47.40-5.30 49.30-5.30L49.30-5.30L49.30-5.30Q51.20-5.30 53.23-6.18L53.23-6.18L53.23-6.18Q55.25-7.05 56.10-8.45ZM45.90-13.90L45.90-13.90L45.90-13.90Q49.45-13.90 51.50-16.10L51.50-16.10L51.50-16.10Q53.55-18.20 53.55-21.55L53.55-21.55L53.55-21.55Q53.55-22.70 53.13-23.33L53.13-23.33L53.13-23.33Q52.70-23.95 51.85-23.95L51.85-23.95L51.85-23.95Q51-23.95 50.27-23.63L50.27-23.63L50.27-23.63Q49.55-23.30 48.80-22.20L48.80-22.20L48.80-22.20Q46.95-19.70 45.90-13.90ZM47.45-31.15L59.25-38.45L59.25-38.45Q61.05-37.75 61.05-35.15L61.05-35.15L61.05-35.15Q61.05-32.95 58.95-31.55L58.95-31.55L58.95-31.55Q57.20-30.35 54.65-29.90L54.65-29.90L48.50-28.75L47.45-31.15ZM80.60-24.65L80.60-24.65L80.60-24.65Q82.25-26.50 85.10-26.50L85.10-26.50L85.10-26.50Q86.85-26.50 88.20-25.55L88.20-25.55L88.20-25.55Q89.55-24.60 89.55-22.83L89.55-22.83L89.55-22.83Q89.55-21.05 89-19.15L89-19.15L89-19.15Q88.45-17.25 87.60-15.30L87.60-15.30L87.60-15.30Q85.90-11.50 83.55-8.35L83.55-8.35L83.55-8.35Q80.25-3.80 77.08-1.40L77.08-1.40L77.08-1.40Q73.90 1 70.45 1L70.45 1L70.45 1Q67.65 1 65.95 0.35L65.95 0.35L65.95 0.35Q65.65-10.15 65.28-13.90L65.28-13.90L65.28-13.90Q64.90-17.65 64.60-19.70L64.60-19.70L64.60-19.70Q64.10-23.70 62.60-24.65L62.60-24.65L62.60-24.65Q63.75-25.65 64.88-26.08L64.88-26.08L64.88-26.08Q66-26.50 68.33-26.50L68.33-26.50L68.33-26.50Q70.65-26.50 72.30-24.68L72.30-24.68L72.30-24.68Q73.95-22.85 74.28-19.63L74.28-19.63L74.28-19.63Q74.60-16.40 74.60-12.50L74.60-12.50L74.60-12.50Q74.60-8.60 74.30-3.90L74.30-3.90L74.30-3.90Q75.85-5 77.50-8.35L77.50-8.35L77.50-8.35Q79.75-13 80.55-18.60L80.55-18.60L80.55-18.60Q80.80-20.30 80.80-22.10L80.80-22.10L80.80-22.10Q80.80-23.90 80.60-24.65ZM111.15-8.45L111.15-8.45L111.15-8.45Q112.40-7.60 112.40-5.73L112.40-5.73L112.40-5.73Q112.40-3.85 111.45-2.65L111.45-2.65L111.45-2.65Q110.50-1.45 108.95-0.65L108.95-0.65L108.95-0.65Q105.75 1 102.30 1L102.30 1L102.30 1Q98.85 1 96.83 0.25L96.83 0.25L96.83 0.25Q94.80-0.50 93.45-1.90L93.45-1.90L93.45-1.90Q90.80-4.55 90.80-9.40L90.80-9.40L90.80-9.40Q90.80-16.95 94.90-21.55L94.90-21.55L94.90-21.55Q99.30-26.50 106.95-26.50L106.95-26.50L106.95-26.50Q111.70-26.50 114.05-24.50L114.05-24.50L114.05-24.50Q115.80-23 115.80-20.55L115.80-20.55L115.80-20.55Q115.80-11.75 100.60-11.75L100.60-11.75L100.60-11.75Q100.40-10.45 100.40-9.35L100.40-9.35L100.40-9.35Q100.40-7.05 101.43-6.18L101.43-6.18L101.43-6.18Q102.45-5.30 104.35-5.30L104.35-5.30L104.35-5.30Q106.25-5.30 108.28-6.18L108.28-6.18L108.28-6.18Q110.30-7.05 111.15-8.45ZM100.95-13.90L100.95-13.90L100.95-13.90Q104.50-13.90 106.55-16.10L106.55-16.10L106.55-16.10Q108.60-18.20 108.60-21.55L108.60-21.55L108.60-21.55Q108.60-22.70 108.18-23.33L108.18-23.33L108.18-23.33Q107.75-23.95 106.90-23.95L106.90-23.95L106.90-23.95Q106.05-23.95 105.33-23.63L105.33-23.63L105.33-23.63Q104.60-23.30 103.85-22.20L103.85-22.20L103.85-22.20Q102.00-19.70 100.95-13.90ZM129.45-2.75L129.45-2.75L129.45-2.75Q127.90 1 122.95 1L122.95 1L122.95 1Q120.45 1 118.85-0.75L118.85-0.75L118.85-0.75Q117.55-2.20 117.55-3.85L117.55-3.85L117.55-3.85Q117.55-7.60 119.30-15.80L119.30-15.80L122.95-35L133.10-36L128.25-10.70L128.25-10.70Q127.40-7 127.40-5.70L127.40-5.70L127.40-5.70Q127.40-2.85 129.45-2.75ZM144.60 1L144.60 1L144.60 1Q133.60 1 133.60-9.35L133.60-9.35L133.60-9.35Q133.60-16.70 137.65-21.45L137.65-21.45L137.65-21.45Q141.95-26.50 149.40-26.50L149.40-26.50L149.40-26.50Q154.80-26.50 157.55-24L157.55-24L157.55-24Q160.30-21.50 160.30-16.25L160.30-16.25L160.30-16.25Q160.30-8.25 156-3.60L156-3.60L156-3.60Q151.80 1 144.60 1ZM145.90-20.75L145.90-20.75L145.90-20.75Q145.30-19.40 144.82-17.38L144.82-17.38L144.82-17.38Q144.35-15.35 143.75-12.15L143.75-12.15L143.75-12.15Q143.15-8.95 143.15-5L143.15-5L143.15-5Q143.15-3.70 143.57-2.85L143.57-2.85L143.57-2.85Q144-2 145.15-2L145.15-2L145.15-2Q146.30-2 147.03-2.55L147.03-2.55L147.03-2.55Q147.75-3.10 148.30-4.40L148.30-4.40L148.30-4.40Q149.30-6.70 150.10-10.98L150.10-10.98L150.10-10.98Q150.90-15.25 150.97-17.10L150.97-17.10L150.97-17.10Q151.05-18.95 151.05-20.33L151.05-20.33L151.05-20.33Q151.05-21.70 150.65-22.60L150.65-22.60L150.65-22.60Q150.25-23.50 149.13-23.50L149.13-23.50L149.13-23.50Q148-23.50 147.25-22.80L147.25-22.80L147.25-22.80Q146.50-22.10 145.90-20.75ZM186.55-3.43L186.55-3.43L186.55-3.43Q184.45-1.30 181.58-0.15L181.58-0.15L181.58-0.15Q178.70 1 175.85 1L175.85 1L175.85 1Q173 1 172 0.50L172 0.50L170.45 9L160.30 10L167.20-25.50L175.35-26.35L174.70-22.90L174.70-22.90Q176.80-26.45 181.15-26.45L181.15-26.45L181.15-26.45Q186.05-26.45 188.65-23.30L188.65-23.30L188.65-23.30Q190.95-20.45 190.95-16.10L190.95-16.10L190.95-16.10Q190.95-11.75 189.80-8.65L189.80-8.65L189.80-8.65Q188.65-5.55 186.55-3.43ZM175.25-17.45L172.60-2.80L172.60-2.80Q173.65-1.90 174.95-1.90L174.95-1.90L174.95-1.90Q176.25-1.90 177-2.40L177-2.40L177-2.40Q177.75-2.90 178.30-3.90L178.30-3.90L178.30-3.90Q179.80-6.60 181-14.80L181-14.80L181-14.80Q181.35-17.20 181.35-19.55L181.35-19.55L181.35-19.55Q181.35-21.90 180.83-22.65L180.83-22.65L180.83-22.65Q180.30-23.40 179.30-23.40L179.30-23.40L179.30-23.40Q176.25-23.40 175.25-17.45L175.25-17.45ZM217.25-3.43L217.25-3.43L217.25-3.43Q215.15-1.30 212.28-0.15L212.28-0.15L212.28-0.15Q209.40 1 206.55 1L206.55 1L206.55 1Q203.70 1 202.70 0.50L202.70 0.50L201.15 9L191.00 10L197.90-25.50L206.05-26.35L205.40-22.90L205.40-22.90Q207.50-26.45 211.85-26.45L211.85-26.45L211.85-26.45Q216.75-26.45 219.35-23.30L219.35-23.30L219.35-23.30Q221.65-20.45 221.65-16.10L221.65-16.10L221.65-16.10Q221.65-11.75 220.50-8.65L220.50-8.65L220.50-8.65Q219.35-5.55 217.25-3.43ZM205.95-17.45L203.30-2.80L203.30-2.80Q204.35-1.90 205.65-1.90L205.65-1.90L205.65-1.90Q206.95-1.90 207.70-2.40L207.70-2.40L207.70-2.40Q208.45-2.90 209.00-3.90L209.00-3.90L209.00-3.90Q210.50-6.60 211.70-14.80L211.70-14.80L211.70-14.80Q212.05-17.20 212.05-19.55L212.05-19.55L212.05-19.55Q212.05-21.90 211.53-22.65L211.53-22.65L211.53-22.65Q211.00-23.40 210.00-23.40L210.00-23.40L210.00-23.40Q206.95-23.40 205.95-17.45L205.95-17.45ZM244.90-8.45L244.90-8.45L244.90-8.45Q246.15-7.60 246.15-5.73L246.15-5.73L246.15-5.73Q246.15-3.85 245.20-2.65L245.20-2.65L245.20-2.65Q244.25-1.45 242.70-0.65L242.70-0.65L242.70-0.65Q239.50 1 236.05 1L236.05 1L236.05 1Q232.60 1 230.58 0.25L230.58 0.25L230.58 0.25Q228.55-0.50 227.20-1.90L227.20-1.90L227.20-1.90Q224.55-4.55 224.55-9.40L224.55-9.40L224.55-9.40Q224.55-16.95 228.65-21.55L228.65-21.55L228.65-21.55Q233.05-26.50 240.70-26.50L240.70-26.50L240.70-26.50Q245.45-26.50 247.80-24.50L247.80-24.50L247.80-24.50Q249.55-23 249.55-20.55L249.55-20.55L249.55-20.55Q249.55-11.75 234.35-11.75L234.35-11.75L234.35-11.75Q234.15-10.45 234.15-9.35L234.15-9.35L234.15-9.35Q234.15-7.05 235.18-6.18L235.18-6.18L235.18-6.18Q236.20-5.30 238.10-5.30L238.10-5.30L238.10-5.30Q240-5.30 242.03-6.18L242.03-6.18L242.03-6.18Q244.05-7.05 244.90-8.45ZM234.70-13.90L234.70-13.90L234.70-13.90Q238.25-13.90 240.30-16.10L240.30-16.10L240.30-16.10Q242.35-18.20 242.35-21.55L242.35-21.55L242.35-21.55Q242.35-22.70 241.93-23.33L241.93-23.33L241.93-23.33Q241.50-23.95 240.65-23.95L240.65-23.95L240.65-23.95Q239.80-23.95 239.08-23.63L239.08-23.63L239.08-23.63Q238.35-23.30 237.60-22.20L237.60-22.20L237.60-22.20Q235.75-19.70 234.70-13.90ZM267.30-2.10L267.30-2.10L267.30-2.10Q264.90 1 258.95 1L258.95 1L258.95 1Q255.85 1 253.60-0.88L253.60-0.88L253.60-0.88Q251.35-2.75 251.35-5.45L251.35-5.45L251.35-5.45Q251.35-6.95 251.50-7.70L251.50-7.70L254.85-25.50L265-26.50L261.35-7.20L261.35-7.20Q261.15-6.10 261.15-5.45L261.15-5.45L261.15-5.45Q261.15-2.55 262.90-2.55L262.90-2.55L262.90-2.55Q264.85-2.55 266.25-5.20L266.25-5.20L266.25-5.20Q266.70-6.05 266.90-7.15L266.90-7.15L270.45-25.50L280.30-26.50L276.60-7L276.60-7Q276.45-6.25 276.45-5.45L276.45-5.45L276.45-5.45Q276.45-4.65 276.90-3.78L276.90-3.78L276.90-3.78Q277.35-2.90 278.80-2.70L278.80-2.70L278.80-2.70Q278.50-1.50 277.45-0.70L277.45-0.70L277.45-0.70Q275.25 1 272.88 1L272.88 1L272.88 1Q270.50 1 269.10 0.15L269.10 0.15L269.10 0.15Q267.70-0.70 267.30-2.10ZM298.65-14.05L298.65-14.05L298.65-14.05Q300.45-17.25 300.45-20.50L300.45-20.50L300.45-20.50Q300.45-22.65 298.90-22.65L298.90-22.65L298.90-22.65Q297.70-22.65 296.45-20.60L296.45-20.60L296.45-20.60Q295.15-18.55 294.75-15.90L294.75-15.90L292.15 0L281.80 1L286.90-25.50L295.15-26.50L294.25-21.45L294.25-21.45Q296.70-26.50 302.20-26.50L302.20-26.50L302.20-26.50Q305.10-26.50 306.67-25L306.67-25L306.67-25Q308.25-23.50 308.25-20.43L308.25-20.43L308.25-20.43Q308.25-17.35 306.22-15.40L306.22-15.40L306.22-15.40Q304.20-13.45 300.75-13.45L300.75-13.45L300.75-13.45Q299.25-13.45 298.65-14.05ZM320.60-31L320.60-31L320.60-31Q321.30-32.40 322.82-33.18L322.82-33.18L322.82-33.18Q324.35-33.95 326.45-33.95L326.45-33.95L326.45-33.95Q329.75-33.95 331.73-31.58L331.73-31.58L331.73-31.58Q333.70-29.20 333.70-24L333.70-24L333.70-6.15L345.15-32.95L351.05-32.95L352.40-7.65L352.25-6.20L364.15-32.95L371-32.95L355 0L344.35 0L343.35-15.20L336.75 0L324.70 0L323.20-24L323.20-24Q323.05-26.70 322.32-28.48L322.32-28.48L322.32-28.48Q321.60-30.25 320.60-31ZM388.25-8.45L388.25-8.45L388.25-8.45Q389.50-7.60 389.50-5.73L389.50-5.73L389.50-5.73Q389.50-3.85 388.55-2.65L388.55-2.65L388.55-2.65Q387.60-1.45 386.05-0.65L386.05-0.65L386.05-0.65Q382.85 1 379.40 1L379.40 1L379.40 1Q375.95 1 373.92 0.25L373.92 0.25L373.92 0.25Q371.90-0.50 370.55-1.90L370.55-1.90L370.55-1.90Q367.90-4.55 367.90-9.40L367.90-9.40L367.90-9.40Q367.90-16.95 372-21.55L372-21.55L372-21.55Q376.40-26.50 384.05-26.50L384.05-26.50L384.05-26.50Q388.80-26.50 391.15-24.50L391.15-24.50L391.15-24.50Q392.90-23 392.90-20.55L392.90-20.55L392.90-20.55Q392.90-11.75 377.70-11.75L377.70-11.75L377.70-11.75Q377.50-10.45 377.50-9.35L377.50-9.35L377.50-9.35Q377.50-7.05 378.52-6.18L378.52-6.18L378.52-6.18Q379.55-5.30 381.45-5.30L381.45-5.30L381.45-5.30Q383.35-5.30 385.38-6.18L385.38-6.18L385.38-6.18Q387.40-7.05 388.25-8.45ZM378.05-13.90L378.05-13.90L378.05-13.90Q381.60-13.90 383.65-16.10L383.65-16.10L383.65-16.10Q385.70-18.20 385.70-21.55L385.70-21.55L385.70-21.55Q385.70-22.70 385.27-23.33L385.27-23.33L385.27-23.33Q384.85-23.95 384-23.95L384-23.95L384-23.95Q383.15-23.95 382.42-23.63L382.42-23.63L382.42-23.63Q381.70-23.30 380.95-22.20L380.95-22.20L380.95-22.20Q379.10-19.70 378.05-13.90ZM393.95-2.40L393.95-2.40L400.15-35L410.30-36L408.75-28.35L408.75-28.35Q408.20-26 407.50-24.35L407.50-24.35L407.50-24.35Q408.60-25.75 411-26.30L411-26.30L411-26.30Q411.70-26.50 412.55-26.50L412.55-26.50L412.55-26.50Q417.20-26.50 419.75-23.68L419.75-23.68L419.75-23.68Q422.30-20.85 422.30-15.40L422.30-15.40L422.30-15.40Q422.30-8.30 418.25-3.85L418.25-3.85L418.25-3.85Q413.90 1 406 1L406 1L406 1Q400.55 1 396.45-0.80L396.45-0.80L396.45-0.80Q395-1.45 393.95-2.40ZM406.65-17.50L404-2.85L404-2.85Q405.05-1.95 406.35-1.95L406.35-1.95L406.35-1.95Q407.65-1.95 408.40-2.45L408.40-2.45L408.40-2.45Q409.15-2.95 409.70-3.95L409.70-3.95L409.70-3.95Q411.20-6.65 412.40-14.90L412.40-14.90L412.40-14.90Q412.75-17.25 412.75-19.60L412.75-19.60L412.75-19.60Q412.75-21.95 412.23-22.70L412.23-22.70L412.23-22.70Q411.70-23.45 410.70-23.45L410.70-23.45L410.70-23.45Q407.65-23.45 406.65-17.50L406.65-17.50ZM455.85-8.45L455.85-8.45L455.85-8.45Q457.10-7.60 457.10-5.73L457.10-5.73L457.10-5.73Q457.10-3.85 456.15-2.65L456.15-2.65L456.15-2.65Q455.20-1.45 453.65-0.65L453.65-0.65L453.65-0.65Q450.45 1 447 1L447 1L447 1Q443.55 1 441.52 0.25L441.52 0.25L441.52 0.25Q439.50-0.50 438.15-1.90L438.15-1.90L438.15-1.90Q435.50-4.55 435.50-9.40L435.50-9.40L435.50-9.40Q435.50-16.95 439.60-21.55L439.60-21.55L439.60-21.55Q444-26.50 451.65-26.50L451.65-26.50L451.65-26.50Q456.40-26.50 458.75-24.50L458.75-24.50L458.75-24.50Q460.50-23 460.50-20.55L460.50-20.55L460.50-20.55Q460.50-11.75 445.30-11.75L445.30-11.75L445.30-11.75Q445.10-10.45 445.10-9.35L445.10-9.35L445.10-9.35Q445.10-7.05 446.13-6.18L446.13-6.18L446.13-6.18Q447.15-5.30 449.05-5.30L449.05-5.30L449.05-5.30Q450.95-5.30 452.98-6.18L452.98-6.18L452.98-6.18Q455-7.05 455.85-8.45ZM445.65-13.90L445.65-13.90L445.65-13.90Q449.20-13.90 451.25-16.10L451.25-16.10L451.25-16.10Q453.30-18.20 453.30-21.55L453.30-21.55L453.30-21.55Q453.30-22.70 452.88-23.33L452.88-23.33L452.88-23.33Q452.45-23.95 451.60-23.95L451.60-23.95L451.60-23.95Q450.75-23.95 450.02-23.63L450.02-23.63L450.02-23.63Q449.30-23.30 448.55-22.20L448.55-22.20L448.55-22.20Q446.70-19.70 445.65-13.90ZM463-5L463-5L463-5Q463-6.35 463.70-9.75L463.70-9.75L466.35-23.25L463.40-23.25L463.60-24.75L463.60-24.75Q469.60-26.55 475.40-30.95L475.40-30.95L477.80-30.95L476.60-25.50L480.50-25.50L480.05-23.25L476.20-23.25L473.65-9.75L473.65-9.75Q473-6.65 473-5.60L473-5.60L473-5.60Q473-3.20 475.10-2.70L475.10-2.70L475.10-2.70Q474.60-1 472.80 0L472.80 0L472.80 0Q471 1 468.45 1L468.45 1L468.45 1Q465.90 1 464.45-0.60L464.45-0.60L464.45-0.60Q463-2.20 463-5ZM491.80-31L491.80-31L491.80-31Q492.50-32.40 494.03-33.18L494.03-33.18L494.03-33.18Q495.55-33.95 497.65-33.95L497.65-33.95L497.65-33.95Q500.95-33.95 502.93-31.58L502.93-31.58L502.93-31.58Q504.90-29.20 504.90-24L504.90-24L504.90-6.15L516.35-32.95L522.25-32.95L523.60-7.65L523.45-6.20L535.35-32.95L542.20-32.95L526.20 0L515.55 0L514.55-15.20L507.95 0L495.90 0L494.40-24L494.40-24Q494.25-26.70 493.53-28.48L493.53-28.48L493.53-28.48Q492.80-30.25 491.80-31ZM559.45-8.45L559.45-8.45L559.45-8.45Q560.70-7.60 560.70-5.73L560.70-5.73L560.70-5.73Q560.70-3.85 559.75-2.65L559.75-2.65L559.75-2.65Q558.80-1.45 557.25-0.65L557.25-0.65L557.25-0.65Q554.05 1 550.60 1L550.60 1L550.60 1Q547.15 1 545.13 0.25L545.13 0.25L545.13 0.25Q543.10-0.50 541.75-1.90L541.75-1.90L541.75-1.90Q539.10-4.55 539.10-9.40L539.10-9.40L539.10-9.40Q539.10-16.95 543.20-21.55L543.20-21.55L543.20-21.55Q547.60-26.50 555.25-26.50L555.25-26.50L555.25-26.50Q560-26.50 562.35-24.50L562.35-24.50L562.35-24.50Q564.10-23 564.10-20.55L564.10-20.55L564.10-20.55Q564.10-11.75 548.90-11.75L548.90-11.75L548.90-11.75Q548.70-10.45 548.70-9.35L548.70-9.35L548.70-9.35Q548.70-7.05 549.73-6.18L549.73-6.18L549.73-6.18Q550.75-5.30 552.65-5.30L552.65-5.30L552.65-5.30Q554.55-5.30 556.58-6.18L556.58-6.18L556.58-6.18Q558.60-7.05 559.45-8.45ZM549.25-13.90L549.25-13.90L549.25-13.90Q552.80-13.90 554.85-16.10L554.85-16.10L554.85-16.10Q556.90-18.20 556.90-21.55L556.90-21.55L556.90-21.55Q556.90-22.70 556.48-23.33L556.48-23.33L556.48-23.33Q556.05-23.95 555.20-23.95L555.20-23.95L555.20-23.95Q554.35-23.95 553.63-23.63L553.63-23.63L553.63-23.63Q552.90-23.30 552.15-22.20L552.15-22.20L552.15-22.20Q550.30-19.70 549.25-13.90ZM565.15-2.40L565.15-2.40L571.35-35L581.50-36L579.95-28.35L579.95-28.35Q579.40-26 578.70-24.35L578.70-24.35L578.70-24.35Q579.80-25.75 582.20-26.30L582.20-26.30L582.20-26.30Q582.90-26.50 583.75-26.50L583.75-26.50L583.75-26.50Q588.40-26.50 590.95-23.68L590.95-23.68L590.95-23.68Q593.50-20.85 593.50-15.40L593.50-15.40L593.50-15.40Q593.50-8.30 589.45-3.85L589.45-3.85L589.45-3.85Q585.10 1 577.20 1L577.20 1L577.20 1Q571.75 1 567.65-0.80L567.65-0.80L567.65-0.80Q566.20-1.45 565.15-2.40ZM577.85-17.50L575.20-2.85L575.20-2.85Q576.25-1.95 577.55-1.95L577.55-1.95L577.55-1.95Q578.85-1.95 579.60-2.45L579.60-2.45L579.60-2.45Q580.35-2.95 580.90-3.95L580.90-3.95L580.90-3.95Q582.40-6.65 583.60-14.90L583.60-14.90L583.60-14.90Q583.95-17.25 583.95-19.60L583.95-19.60L583.95-19.60Q583.95-21.95 583.43-22.70L583.43-22.70L583.43-22.70Q582.90-23.45 581.90-23.45L581.90-23.45L581.90-23.45Q578.85-23.45 577.85-17.50L577.85-17.50ZM611.05 0L605.30 0L614.35-33L624.80-33L627.10-14.15L636.40-33L645.15-33L646.05-8.30L646.05-8.30Q646.25-3.40 648.65-1.90L648.65-1.90L648.65-1.90Q648.10-0.90 646.50 0.05L646.50 0.05L646.50 0.05Q644.90 1 642.78 1L642.78 1L642.78 1Q640.65 1 639.40 0.40L639.40 0.40L639.40 0.40Q638.15-0.20 637.45-1.20L637.45-1.20L637.45-1.20Q636.20-3 636.20-6.45L636.20-6.45L636.20-21.90L626.35 0L620.15 0L616.65-22.45L611.05 0ZM661.70 1L661.70 1L661.70 1Q650.70 1 650.70-9.35L650.70-9.35L650.70-9.35Q650.70-16.70 654.75-21.45L654.75-21.45L654.75-21.45Q659.05-26.50 666.50-26.50L666.50-26.50L666.50-26.50Q671.90-26.50 674.65-24L674.65-24L674.65-24Q677.40-21.50 677.40-16.25L677.40-16.25L677.40-16.25Q677.40-8.25 673.10-3.60L673.10-3.60L673.10-3.60Q668.90 1 661.70 1ZM663-20.75L663-20.75L663-20.75Q662.40-19.40 661.93-17.38L661.93-17.38L661.93-17.38Q661.45-15.35 660.85-12.15L660.85-12.15L660.85-12.15Q660.25-8.95 660.25-5L660.25-5L660.25-5Q660.25-3.70 660.68-2.85L660.68-2.85L660.68-2.85Q661.10-2 662.25-2L662.25-2L662.25-2Q663.40-2 664.13-2.55L664.13-2.55L664.13-2.55Q664.85-3.10 665.40-4.40L665.40-4.40L665.40-4.40Q666.40-6.70 667.20-10.98L667.20-10.98L667.20-10.98Q668-15.25 668.08-17.10L668.08-17.10L668.08-17.10Q668.15-18.95 668.15-20.33L668.15-20.33L668.15-20.33Q668.15-21.70 667.75-22.60L667.75-22.60L667.75-22.60Q667.35-23.50 666.23-23.50L666.23-23.50L666.23-23.50Q665.10-23.50 664.35-22.80L664.35-22.80L664.35-22.80Q663.60-22.10 663-20.75ZM679.70-2.40L679.70-2.40L685.90-35L696.05-36L694.50-28.35L694.50-28.35Q693.95-26 693.25-24.35L693.25-24.35L693.25-24.35Q694.35-25.75 696.75-26.30L696.75-26.30L696.75-26.30Q697.45-26.50 698.30-26.50L698.30-26.50L698.30-26.50Q702.95-26.50 705.50-23.68L705.50-23.68L705.50-23.68Q708.05-20.85 708.05-15.40L708.05-15.40L708.05-15.40Q708.05-8.30 704-3.85L704-3.85L704-3.85Q699.65 1 691.75 1L691.75 1L691.75 1Q686.30 1 682.20-0.80L682.20-0.80L682.20-0.80Q680.75-1.45 679.70-2.40ZM692.40-17.50L689.75-2.85L689.75-2.85Q690.80-1.95 692.10-1.95L692.10-1.95L692.10-1.95Q693.40-1.95 694.15-2.45L694.15-2.45L694.15-2.45Q694.90-2.95 695.45-3.95L695.45-3.95L695.45-3.95Q696.95-6.65 698.15-14.90L698.15-14.90L698.15-14.90Q698.50-17.25 698.50-19.60L698.50-19.60L698.50-19.60Q698.50-21.95 697.98-22.70L697.98-22.70L697.98-22.70Q697.45-23.45 696.45-23.45L696.45-23.45L696.45-23.45Q693.40-23.45 692.40-17.50L692.40-17.50ZM723.05-2.75L723.05-2.75L723.05-2.75Q721.50 1 716.55 1L716.55 1L716.55 1Q714 1 712.40-0.75L712.40-0.75L712.40-0.75Q711.05-2.30 711.05-3.85L711.05-3.85L711.05-3.85Q711.05-7.90 712.90-15.80L712.90-15.80L714.75-25.50L724.90-26.50L721.85-10.70L721.85-10.70Q721-7 721-5.70L721-5.70L721-5.70Q721-2.85 723.05-2.75ZM715.65-32.45L715.65-32.45L715.65-32.45Q715.65-34.40 717.28-35.45L717.28-35.45L717.28-35.45Q718.90-36.50 721.25-36.50L721.25-36.50L721.25-36.50Q723.60-36.50 725.03-35.45L725.03-35.45L725.03-35.45Q726.45-34.40 726.45-32.45L726.45-32.45L726.45-32.45Q726.45-30.50 724.88-29.50L724.88-29.50L724.88-29.50Q723.30-28.50 720.95-28.50L720.95-28.50L720.95-28.50Q718.60-28.50 717.13-29.50L717.13-29.50L717.13-29.50Q715.65-30.50 715.65-32.45ZM739.25-2.75L739.25-2.75L739.25-2.75Q737.70 1 732.75 1L732.75 1L732.75 1Q730.25 1 728.65-0.75L728.65-0.75L728.65-0.75Q727.35-2.20 727.35-3.85L727.35-3.85L727.35-3.85Q727.35-7.60 729.10-15.80L729.10-15.80L732.75-35L742.90-36L738.05-10.70L738.05-10.70Q737.20-7 737.20-5.70L737.20-5.70L737.20-5.70Q737.20-2.85 739.25-2.75ZM763.75-8.45L763.75-8.45L763.75-8.45Q765.00-7.60 765.00-5.73L765.00-5.73L765.00-5.73Q765.00-3.85 764.05-2.65L764.05-2.65L764.05-2.65Q763.10-1.45 761.55-0.65L761.55-0.65L761.55-0.65Q758.35 1 754.90 1L754.90 1L754.90 1Q751.45 1 749.43 0.25L749.43 0.25L749.43 0.25Q747.40-0.50 746.05-1.90L746.05-1.90L746.05-1.90Q743.40-4.55 743.40-9.40L743.40-9.40L743.40-9.40Q743.40-16.95 747.50-21.55L747.50-21.55L747.50-21.55Q751.90-26.50 759.55-26.50L759.55-26.50L759.55-26.50Q764.30-26.50 766.65-24.50L766.65-24.50L766.65-24.50Q768.40-23 768.40-20.55L768.40-20.55L768.40-20.55Q768.40-11.75 753.20-11.75L753.20-11.75L753.20-11.75Q753.00-10.45 753.00-9.35L753.00-9.35L753.00-9.35Q753.00-7.05 754.03-6.18L754.03-6.18L754.03-6.18Q755.05-5.30 756.95-5.30L756.95-5.30L756.95-5.30Q758.85-5.30 760.88-6.18L760.88-6.18L760.88-6.18Q762.90-7.05 763.75-8.45ZM753.55-13.90L753.55-13.90L753.55-13.90Q757.10-13.90 759.15-16.10L759.15-16.10L759.15-16.10Q761.20-18.20 761.20-21.55L761.20-21.55L761.20-21.55Q761.20-22.70 760.78-23.33L760.78-23.33L760.78-23.33Q760.35-23.95 759.50-23.95L759.50-23.95L759.50-23.95Q758.65-23.95 757.93-23.63L757.93-23.63L757.93-23.63Q757.20-23.30 756.45-22.20L756.45-22.20L756.45-22.20Q754.60-19.70 753.55-13.90Z" fill="#ffffff"></path></g></g><style>text {
  font-size: 64px;
  font-family: Arial Black;
  dominant-baseline: central;
  text-anchor: middle;
}</style></svg>