<svg width="788.39375px" height="122px" xmlns="http://www.w3.org/2000/svg" viewBox="-144.19687499999998 14 788.39375 122" style="background: none;" preserveAspectRatio="xMidYMid"><defs><filter id="editing-extrude-glow"><feFlood flood-color="#ffffff" result="flood-1"></feFlood><feMorphology operator="erode" radius="1" in="SourceAlpha" result="erode"></feMorphology><feComposite operator="in" in="flood-1" in2="erode" result="comp1"></feComposite><feConvolveMatrix order="0,0" divisor="1" in="comp1" result="convolve" kernelMatrix=""></feConvolveMatrix><feOffset dx="0" dy="0" in="convolve" result="extrude"></feOffset><feComposite operator="in" in="flood-1" in2="extrude" result="comp-extrude"></feComposite><feFlood flood-color="#000000" result="flood-2"></feFlood><feComposite operator="in" in="flood-2" in2="SourceAlpha" result="comp2"></feComposite><feMorphology operator="dilate" radius="1" in="comp2" result="dilate"></feMorphology><feOffset dx="0" dy="0" in="dilate" result="offset"></feOffset><feGaussianBlur in="offset" stdDeviation="5.8" result="blur"></feGaussianBlur><feComponentTransfer in="blur" result="shadow"><feFuncA type="linear" slope="0.8" intercept="-0.2"></feFuncA></feComponentTransfer><feMerge><feMergeNode in="shadow"></feMergeNode><feMergeNode in="comp-extrude"></feMergeNode><feMergeNode in="SourceGraphic"></feMergeNode></feMerge></filter></defs><g filter="url(#editing-extrude-glow)"><g transform="translate(-32.23999297618866, 99)"><path d="M26.05-29.57L26.05-29.57L26.05-29.57Q27.01-31.49 27.01-33.28L27.01-33.28L27.01-33.28Q27.01-35.07 26.82-36.06L26.82-36.06L26.82-36.06Q26.62-37.06 26.18-37.82L26.18-37.82L26.18-37.82Q25.22-39.49 23.30-39.49L23.30-39.49L23.30-39.49Q20.93-39.49 19.01-37.76L19.01-37.76L19.01-37.76Q16.96-35.97 16.96-33.15L16.96-33.15L16.96-33.15Q16.96-31.36 18.21-29.98L18.21-29.98L18.21-29.98Q19.46-28.61 21.38-27.33L21.38-27.33L21.38-27.33Q23.30-26.05 25.47-24.77L25.47-24.77L25.47-24.77Q27.65-23.49 29.57-21.95L29.57-21.95L29.57-21.95Q33.98-18.43 33.98-13.70L33.98-13.70L33.98-13.70Q33.98-10.50 32.29-7.78L32.29-7.78L32.29-7.78Q30.59-5.06 27.78-3.07L27.78-3.07L27.78-3.07Q21.63 1.28 13.50 1.28L13.50 1.28L13.50 1.28Q6.91 1.28 3.52-0.86L3.52-0.86L3.52-0.86Q0.13-3.01 0.13-6.27L0.13-6.27L0.13-6.27Q0.13-12.10 4.67-13.57L4.67-13.57L4.67-13.57Q5.95-14.02 7.90-14.02L7.90-14.02L7.90-14.02Q9.86-14.02 12.10-13.18L12.10-13.18L12.10-13.18Q11.07-10.56 11.07-8.19L11.07-8.19L11.07-8.19Q11.07-3.07 14.72-3.07L14.72-3.07L14.72-3.07Q17.09-3.07 19.04-4.80L19.04-4.80L19.04-4.80Q20.99-6.53 20.99-8.48L20.99-8.48L20.99-8.48Q20.99-10.43 19.74-11.84L19.74-11.84L19.74-11.84Q18.50-13.25 16.64-14.37L16.64-14.37L16.64-14.37Q14.78-15.49 12.64-16.58L12.64-16.58L12.64-16.58Q10.50-17.66 8.64-19.20L8.64-19.20L8.64-19.20Q4.29-22.72 4.29-28.35L4.29-28.35L4.29-28.35Q4.29-32 6.08-34.85L6.08-34.85L6.08-34.85Q7.87-37.70 10.75-39.62L10.75-39.62L10.75-39.62Q16.51-43.52 23.58-43.52L23.58-43.52L23.58-43.52Q30.66-43.52 34.08-41.41L34.08-41.41L34.08-41.41Q37.50-39.30 37.50-35.71L37.50-35.71L37.50-35.71Q37.50-32.58 35.07-30.59L35.07-30.59L35.07-30.59Q32.96-28.93 30.40-28.93L30.40-28.93L30.40-28.93Q27.84-28.93 26.05-29.57ZM52.80 1.28L52.80 1.28L52.80 1.28Q38.72 1.28 38.72-11.97L38.72-11.97L38.72-11.97Q38.72-21.38 43.90-27.46L43.90-27.46L43.90-27.46Q49.41-33.92 58.94-33.92L58.94-33.92L58.94-33.92Q65.86-33.92 69.38-30.72L69.38-30.72L69.38-30.72Q72.90-27.52 72.90-20.80L72.90-20.80L72.90-20.80Q72.90-10.56 67.39-4.61L67.39-4.61L67.39-4.61Q62.02 1.28 52.80 1.28ZM54.46-26.56L54.46-26.56L54.46-26.56Q53.70-24.83 53.09-22.24L53.09-22.24L53.09-22.24Q52.48-19.65 51.71-15.55L51.71-15.55L51.71-15.55Q50.94-11.46 50.94-6.40L50.94-6.40L50.94-6.40Q50.94-4.74 51.49-3.65L51.49-3.65L51.49-3.65Q52.03-2.56 53.50-2.56L53.50-2.56L53.50-2.56Q54.98-2.56 55.90-3.26L55.90-3.26L55.90-3.26Q56.83-3.97 57.54-5.63L57.54-5.63L57.54-5.63Q58.82-8.58 59.84-14.05L59.84-14.05L59.84-14.05Q60.86-19.52 60.96-21.89L60.96-21.89L60.96-21.89Q61.06-24.26 61.06-26.02L61.06-26.02L61.06-26.02Q61.06-27.78 60.54-28.93L60.54-28.93L60.54-28.93Q60.03-30.08 58.59-30.08L58.59-30.08L58.59-30.08Q57.15-30.08 56.19-29.18L56.19-29.18L56.19-29.18Q55.23-28.29 54.46-26.56ZM101.63-37.12L101.63-37.12L101.63-37.12Q102.53-38.66 102.53-40.32L102.53-40.32L102.53-40.32Q102.53-43.26 100.74-43.26L100.74-43.26L100.74-43.26Q97.98-43.26 96.83-37.63L96.83-37.63L95.87-32.64L101.70-32.64L101.31-29.76L95.30-29.76L89.54 0L76.61 1.28L82.75-29.76L78.21-29.76L78.78-32.64L83.26-32.64L84.61-37.70L84.61-37.70Q85.76-42.37 90.69-44.54L90.69-44.54L90.69-44.54Q94.27-46.08 100.29-46.08L100.29-46.08L100.29-46.08Q106.30-46.08 108.99-44.54L108.99-44.54L108.99-44.54Q111.68-43.01 111.68-40.96L111.68-40.96L111.68-40.96Q111.68-38.91 110.08-37.63L110.08-37.63L110.08-37.63Q108.48-36.35 106.69-36.35L106.69-36.35L106.69-36.35Q103.17-36.35 101.63-37.12ZM121.98-3.52L121.98-3.52L121.98-3.52Q120.00 1.28 113.66 1.28L113.66 1.28L113.66 1.28Q110.40 1.28 108.35-0.96L108.35-0.96L108.35-0.96Q106.62-2.94 106.62-4.93L106.62-4.93L106.62-4.93Q106.62-10.11 108.99-20.22L108.99-20.22L111.36-32.64L124.35-33.92L120.45-13.70L120.45-13.70Q119.36-8.96 119.36-7.30L119.36-7.30L119.36-7.30Q119.36-3.65 121.98-3.52ZM112.51-41.54L112.51-41.54L112.51-41.54Q112.51-44.03 114.59-45.38L114.59-45.38L114.59-45.38Q116.67-46.72 119.68-46.72L119.68-46.72L119.68-46.72Q122.69-46.72 124.51-45.38L124.51-45.38L124.51-45.38Q126.34-44.03 126.34-41.54L126.34-41.54L126.34-41.54Q126.34-39.04 124.32-37.76L124.32-37.76L124.32-37.76Q122.30-36.48 119.30-36.48L119.30-36.48L119.30-36.48Q116.29-36.48 114.40-37.76L114.40-37.76L114.40-37.76Q112.51-39.04 112.51-41.54ZM130.21-1.92L130.21-1.92L130.21-1.92Q128.70-3.58 128.03-6.21L128.03-6.21L128.03-6.21Q127.36-8.83 127.36-13.12L127.36-13.12L127.36-13.12Q127.36-17.41 128.83-21.31L128.83-21.31L128.83-21.31Q130.30-25.22 132.99-28.03L132.99-28.03L132.99-28.03Q138.50-33.92 147.58-33.92L147.58-33.92L147.58-33.92Q150.85-33.92 153.22-32.83L153.22-32.83L164.16-33.92L159.42-8.96L159.42-8.96Q159.23-8.19 159.23-6.78L159.23-6.78L159.23-6.78Q159.23-5.38 160.10-4.48L160.10-4.48L160.10-4.48Q160.96-3.58 162.24-3.46L162.24-3.46L162.24-3.46Q161.60-1.28 159.26 0L159.26 0L159.26 0Q156.93 1.28 154.30 1.28L154.30 1.28L154.30 1.28Q151.68 1.28 149.92 0.29L149.92 0.29L149.92 0.29Q148.16-0.70 147.65-2.37L147.65-2.37L147.65-2.37Q146.62-0.77 144.45 0.26L144.45 0.26L144.45 0.26Q142.27 1.28 139.36 1.28L139.36 1.28L139.36 1.28Q136.45 1.28 134.08 0.51L134.08 0.51L134.08 0.51Q131.71-0.26 130.21-1.92ZM143.71-27.90L143.71-27.90L143.71-27.90Q142.98-26.75 142.34-24.80L142.34-24.80L142.34-24.80Q141.70-22.85 140.64-17.63L140.64-17.63L140.64-17.63Q139.58-12.42 139.58-8.70L139.58-8.70L139.58-8.70Q139.58-4.99 140.16-3.90L140.16-3.90L140.16-3.90Q140.74-2.82 141.76-2.82L141.76-2.82L141.76-2.82Q143.81-2.82 145.31-4.77L145.31-4.77L145.31-4.77Q146.82-6.72 147.39-10.18L147.39-10.18L150.78-28.93L150.78-28.93Q149.44-30.08 147.87-30.08L147.87-30.08L147.87-30.08Q146.30-30.08 145.38-29.57L145.38-29.57L145.38-29.57Q144.45-29.06 143.71-27.90ZM194.69 1.28L194.69 1.28L194.69 1.28Q186.94 1.28 186.94-4.74L186.94-4.74L186.94-4.74Q187.01-6.40 187.52-9.22L187.52-9.22L188.67-15.10L188.67-15.10Q190.40-23.42 190.40-25.28L190.40-25.28L190.40-25.28Q190.40-28.99 188.22-28.99L188.22-28.99L188.22-28.99Q184.58-28.99 182.66-19.46L182.66-19.46L178.88 0L166.02 1.28L172.67-32.70L183.17-33.92L182.14-27.65L182.14-27.65Q185.15-33.92 194.37-33.92L194.37-33.92L194.37-33.92Q198.85-33.92 200.74-32.03L200.74-32.03L200.74-32.03Q202.62-30.14 202.62-25.92L202.62-25.92L202.62-25.92Q202.62-21.95 200.58-12.67L200.58-12.67L200.58-12.67Q199.62-8.51 199.62-6.94L199.62-6.94L199.62-6.94Q199.62-5.38 200.48-4.48L200.48-4.48L200.48-4.48Q201.34-3.58 202.62-3.46L202.62-3.46L202.62-3.46Q201.98-1.28 199.78 0L199.78 0L199.78 0Q197.57 1.28 194.69 1.28ZM233.66-10.82L233.66-10.82L233.66-10.82Q235.26-9.73 235.26-7.33L235.26-7.33L235.26-7.33Q235.26-4.93 234.05-3.39L234.05-3.39L234.05-3.39Q232.83-1.86 230.85-0.83L230.85-0.83L230.85-0.83Q226.75 1.28 222.34 1.28L222.34 1.28L222.34 1.28Q217.92 1.28 215.33 0.32L215.33 0.32L215.33 0.32Q212.74-0.64 211.01-2.43L211.01-2.43L211.01-2.43Q207.62-5.82 207.62-12.03L207.62-12.03L207.62-12.03Q207.62-21.70 212.86-27.58L212.86-27.58L212.86-27.58Q218.50-33.92 228.29-33.92L228.29-33.92L228.29-33.92Q234.37-33.92 237.38-31.36L237.38-31.36L237.38-31.36Q239.62-29.44 239.62-26.30L239.62-26.30L239.62-26.30Q239.62-15.04 220.16-15.04L220.16-15.04L220.16-15.04Q219.90-13.38 219.90-11.97L219.90-11.97L219.90-11.97Q219.90-9.02 221.22-7.90L221.22-7.90L221.22-7.90Q222.53-6.78 224.96-6.78L224.96-6.78L224.96-6.78Q227.39-6.78 229.98-7.90L229.98-7.90L229.98-7.90Q232.58-9.02 233.66-10.82ZM220.61-17.79L220.61-17.79L220.61-17.79Q225.15-17.79 227.78-20.61L227.78-20.61L227.78-20.61Q230.40-23.30 230.40-27.58L230.40-27.58L230.40-27.58Q230.40-29.06 229.86-29.86L229.86-29.86L229.86-29.86Q229.31-30.66 228.22-30.66L228.22-30.66L228.22-30.66Q227.14-30.66 226.21-30.24L226.21-30.24L226.21-30.24Q225.28-29.82 224.32-28.42L224.32-28.42L224.32-28.42Q221.95-25.22 220.61-17.79ZM268.03 0L254.40 0L261.70-38.91L262.40-42.24L276.10-42.24L268.03 0ZM294.02-3.78L294.02-3.78L294.02-3.78Q292.29 1.28 285.63 1.28L285.63 1.28L285.63 1.28Q280.70 1.28 277.31-4.61L277.31-4.61L277.31-4.61Q273.86-10.50 273.22-20.10L273.22-20.10L273.22-20.10Q280.26-32.96 285.12-38.27L285.12-38.27L285.12-38.27Q289.79-43.33 294.66-43.33L294.66-43.33L294.66-43.33Q297.28-43.33 299.17-41.92L299.17-41.92L299.17-41.92Q301.06-40.51 301.50-38.27L301.50-38.27L301.50-38.27Q299.33-37.38 298.30-36.67L298.30-36.67L298.30-36.67Q295.74-34.75 292.29-30.46L292.29-30.46L286.46-23.49L286.46-23.49Q285.06-21.82 284.48-21.06L284.48-21.06L284.48-21.06Q285.44-15.68 288.32-10.37L288.32-10.37L288.32-10.37Q291.07-5.31 294.02-3.78ZM331.65-7.10L331.65-7.10L331.65-7.10Q331.65-4.29 334.53-3.46L334.53-3.46L334.53-3.46Q333.82-1.09 331.07 0.19L331.07 0.19L331.07 0.19Q328.77 1.28 326.24 1.28L326.24 1.28L326.24 1.28Q323.71 1.28 322.40 0.61L322.40 0.61L322.40 0.61Q321.09-0.06 320.38-1.15L320.38-1.15L320.38-1.15Q319.23-2.82 319.23-5.95L319.23-5.95L319.23-5.95Q319.23-7.81 320.26-12.93L320.26-12.93L321.15-17.79L321.15-17.79Q322.24-23.36 322.24-25.41L322.24-25.41L322.24-25.41Q322.24-28.99 320.26-28.99L320.26-28.99L320.26-28.99Q317.76-28.99 316.16-25.34L316.16-25.34L316.16-25.34Q315.52-23.94 315.07-21.82L315.07-21.82L310.72 0L297.86 1.28L306.88-44.80L319.74-46.08L319.23-43.52L319.23-43.52Q317.44-33.66 315.90-30.34L315.90-30.34L315.90-30.34Q319.49-33.92 326.08-33.92L326.08-33.92L326.08-33.92Q333.06-33.92 334.34-29.31L334.34-29.31L334.34-29.31Q334.78-27.84 334.78-26.56L334.78-26.56L334.78-26.56Q334.78-25.28 334.69-24.29L334.69-24.29L334.69-24.29Q334.59-23.30 334.27-21.50L334.27-21.50L333.44-16.90L331.97-9.66L331.97-9.66Q331.65-8.19 331.65-7.10ZM365.63-10.82L365.63-10.82L365.63-10.82Q367.23-9.73 367.23-7.33L367.23-7.33L367.23-7.33Q367.23-4.93 366.02-3.39L366.02-3.39L366.02-3.39Q364.80-1.86 362.82-0.83L362.82-0.83L362.82-0.83Q358.72 1.28 354.30 1.28L354.30 1.28L354.30 1.28Q349.89 1.28 347.30 0.32L347.30 0.32L347.30 0.32Q344.70-0.64 342.98-2.43L342.98-2.43L342.98-2.43Q339.58-5.82 339.58-12.03L339.58-12.03L339.58-12.03Q339.58-21.70 344.83-27.58L344.83-27.58L344.83-27.58Q350.46-33.92 360.26-33.92L360.26-33.92L360.26-33.92Q366.34-33.92 369.34-31.36L369.34-31.36L369.34-31.36Q371.58-29.44 371.58-26.30L371.58-26.30L371.58-26.30Q371.58-15.04 352.13-15.04L352.13-15.04L352.13-15.04Q351.87-13.38 351.87-11.97L351.87-11.97L351.87-11.97Q351.87-9.02 353.18-7.90L353.18-7.90L353.18-7.90Q354.50-6.78 356.93-6.78L356.93-6.78L356.93-6.78Q359.36-6.78 361.95-7.90L361.95-7.90L361.95-7.90Q364.54-9.02 365.63-10.82ZM352.58-17.79L352.58-17.79L352.58-17.79Q357.12-17.79 359.74-20.61L359.74-20.61L359.74-20.61Q362.37-23.30 362.37-27.58L362.37-27.58L362.37-27.58Q362.37-29.06 361.82-29.86L361.82-29.86L361.82-29.86Q361.28-30.66 360.19-30.66L360.19-30.66L360.19-30.66Q359.10-30.66 358.18-30.24L358.18-30.24L358.18-30.24Q357.25-29.82 356.29-28.42L356.29-28.42L356.29-28.42Q353.92-25.22 352.58-17.79ZM400.83 1.28L400.83 1.28L400.83 1.28Q393.09 1.28 393.09-4.74L393.09-4.74L393.09-4.74Q393.15-6.40 393.66-9.22L393.66-9.22L394.82-15.10L394.82-15.10Q396.54-23.42 396.54-25.28L396.54-25.28L396.54-25.28Q396.54-28.99 394.37-28.99L394.37-28.99L394.37-28.99Q390.72-28.99 388.80-19.46L388.80-19.46L385.02 0L372.16 1.28L378.82-32.70L389.31-33.92L388.29-27.65L388.29-27.65Q391.30-33.92 400.51-33.92L400.51-33.92L400.51-33.92Q404.99-33.92 406.88-32.03L406.88-32.03L406.88-32.03Q408.77-30.14 408.77-25.92L408.77-25.92L408.77-25.92Q408.77-21.95 406.72-12.67L406.72-12.67L406.72-12.67Q405.76-8.51 405.76-6.94L405.76-6.94L405.76-6.94Q405.76-5.38 406.62-4.48L406.62-4.48L406.62-4.48Q407.49-3.58 408.77-3.46L408.77-3.46L408.77-3.46Q408.13-1.28 405.92 0L405.92 0L405.92 0Q403.71 1.28 400.83 1.28ZM427.84 1.28L427.84 1.28L427.84 1.28Q413.76 1.28 413.76-11.97L413.76-11.97L413.76-11.97Q413.76-21.38 418.94-27.46L418.94-27.46L418.94-27.46Q424.45-33.92 433.98-33.92L433.98-33.92L433.98-33.92Q440.90-33.92 444.42-30.72L444.42-30.72L444.42-30.72Q447.94-27.52 447.94-20.80L447.94-20.80L447.94-20.80Q447.94-10.56 442.43-4.61L442.43-4.61L442.43-4.61Q437.06 1.28 427.84 1.28ZM429.50-26.56L429.50-26.56L429.50-26.56Q428.74-24.83 428.13-22.24L428.13-22.24L428.13-22.24Q427.52-19.65 426.75-15.55L426.75-15.55L426.75-15.55Q425.98-11.46 425.98-6.40L425.98-6.40L425.98-6.40Q425.98-4.74 426.53-3.65L426.53-3.65L426.53-3.65Q427.07-2.56 428.54-2.56L428.54-2.56L428.54-2.56Q430.02-2.56 430.94-3.26L430.94-3.26L430.94-3.26Q431.87-3.97 432.58-5.63L432.58-5.63L432.58-5.63Q433.86-8.58 434.88-14.05L434.88-14.05L434.88-14.05Q435.90-19.52 436-21.89L436-21.89L436-21.89Q436.10-24.26 436.10-26.02L436.10-26.02L436.10-26.02Q436.10-27.78 435.58-28.93L435.58-28.93L435.58-28.93Q435.07-30.08 433.63-30.08L433.63-30.08L433.63-30.08Q432.19-30.08 431.23-29.18L431.23-29.18L431.23-29.18Q430.27-28.29 429.50-26.56ZM472.26-2.69L472.26-2.69L472.26-2.69Q469.18 1.28 461.57 1.28L461.57 1.28L461.57 1.28Q457.60 1.28 454.72-1.12L454.72-1.12L454.72-1.12Q451.84-3.52 451.84-6.98L451.84-6.98L451.84-6.98Q451.84-8.90 452.03-9.86L452.03-9.86L456.32-32.64L469.31-33.92L464.64-9.22L464.64-9.22Q464.38-7.81 464.38-6.98L464.38-6.98L464.38-6.98Q464.38-3.26 466.62-3.26L466.62-3.26L466.62-3.26Q469.12-3.26 470.91-6.66L470.91-6.66L470.91-6.66Q471.49-7.74 471.74-9.15L471.74-9.15L476.29-32.64L488.90-33.92L484.16-8.96L484.16-8.96Q483.97-8 483.97-6.98L483.97-6.98L483.97-6.98Q483.97-5.95 484.54-4.83L484.54-4.83L484.54-4.83Q485.12-3.71 486.98-3.46L486.98-3.46L486.98-3.46Q486.59-1.92 485.25-0.90L485.25-0.90L485.25-0.90Q482.43 1.28 479.39 1.28L479.39 1.28L479.39 1.28Q476.35 1.28 474.56 0.19L474.56 0.19L474.56 0.19Q472.77-0.90 472.26-2.69ZM519.42 1.28L519.42 1.28L519.42 1.28Q511.68 1.28 511.68-4.74L511.68-4.74L511.68-4.74Q511.74-6.40 512.26-9.22L512.26-9.22L513.41-15.10L513.41-15.10Q515.14-23.42 515.14-25.28L515.14-25.28L515.14-25.28Q515.14-28.99 512.96-28.99L512.96-28.99L512.96-28.99Q509.31-28.99 507.39-19.46L507.39-19.46L503.62 0L490.75 1.28L497.41-32.70L507.90-33.92L506.88-27.65L506.88-27.65Q509.89-33.92 519.10-33.92L519.10-33.92L519.10-33.92Q523.58-33.92 525.47-32.03L525.47-32.03L525.47-32.03Q527.36-30.14 527.36-25.92L527.36-25.92L527.36-25.92Q527.36-21.95 525.31-12.67L525.31-12.67L525.31-12.67Q524.35-8.51 524.35-6.94L524.35-6.94L524.35-6.94Q524.35-5.38 525.22-4.48L525.22-4.48L525.22-4.48Q526.08-3.58 527.36-3.46L527.36-3.46L527.36-3.46Q526.72-1.28 524.51 0L524.51 0L524.51 0Q522.30 1.28 519.42 1.28ZM558.40-10.82L558.40-10.82L558.40-10.82Q560-9.73 560-7.33L560-7.33L560-7.33Q560-4.93 558.78-3.39L558.78-3.39L558.78-3.39Q557.57-1.86 555.58-0.83L555.58-0.83L555.58-0.83Q551.49 1.28 547.07 1.28L547.07 1.28L547.07 1.28Q542.66 1.28 540.06 0.32L540.06 0.32L540.06 0.32Q537.47-0.64 535.74-2.43L535.74-2.43L535.74-2.43Q532.35-5.82 532.35-12.03L532.35-12.03L532.35-12.03Q532.35-21.70 537.60-27.58L537.60-27.58L537.60-27.58Q543.23-33.92 553.02-33.92L553.02-33.92L553.02-33.92Q559.10-33.92 562.11-31.36L562.11-31.36L562.11-31.36Q564.35-29.44 564.35-26.30L564.35-26.30L564.35-26.30Q564.35-15.04 544.90-15.04L544.90-15.04L544.90-15.04Q544.64-13.38 544.64-11.97L544.64-11.97L544.64-11.97Q544.64-9.02 545.95-7.90L545.95-7.90L545.95-7.90Q547.26-6.78 549.70-6.78L549.70-6.78L549.70-6.78Q552.13-6.78 554.72-7.90L554.72-7.90L554.72-7.90Q557.31-9.02 558.40-10.82ZM545.34-17.79L545.34-17.79L545.34-17.79Q549.89-17.79 552.51-20.61L552.51-20.61L552.51-20.61Q555.14-23.30 555.14-27.58L555.14-27.58L555.14-27.58Q555.14-29.06 554.59-29.86L554.59-29.86L554.59-29.86Q554.05-30.66 552.96-30.66L552.96-30.66L552.96-30.66Q551.87-30.66 550.94-30.24L550.94-30.24L550.94-30.24Q550.02-29.82 549.06-28.42L549.06-28.42L549.06-28.42Q546.69-25.22 545.34-17.79Z" fill="#ffffff"></path></g></g><style>text {
  font-size: 64px;
  font-family: Arial Black;
  dominant-baseline: central;
  text-anchor: middle;
}</style></svg>