<svg width="695.191015625px" height="84.8px" xmlns="http://www.w3.org/2000/svg" viewBox="-97.59550781249999 32.6 695.191015625 84.8" style="background: none;" preserveAspectRatio="xMidYMid"><defs><filter id="editing-extrude-glow"><feFlood flood-color="#ffffff" result="flood-1"></feFlood><feMorphology operator="erode" radius="1" in="SourceAlpha" result="erode"></feMorphology><feComposite operator="in" in="flood-1" in2="erode" result="comp1"></feComposite><feConvolveMatrix order="0,0" divisor="1" in="comp1" result="convolve" kernelMatrix=""></feConvolveMatrix><feOffset dx="0" dy="0" in="convolve" result="extrude"></feOffset><feComposite operator="in" in="flood-1" in2="extrude" result="comp-extrude"></feComposite><feFlood flood-color="#000000" result="flood-2"></feFlood><feComposite operator="in" in="flood-2" in2="SourceAlpha" result="comp2"></feComposite><feMorphology operator="dilate" radius="1" in="comp2" result="dilate"></feMorphology><feOffset dx="0" dy="0" in="dilate" result="offset"></feOffset><feGaussianBlur in="offset" stdDeviation="5.8" result="blur"></feGaussianBlur><feComponentTransfer in="blur" result="shadow"><feFuncA type="linear" slope="0.8" intercept="-0.2"></feFuncA></feComponentTransfer><feMerge><feMergeNode in="shadow"></feMergeNode><feMergeNode in="comp-extrude"></feMergeNode><feMergeNode in="SourceGraphic"></feMergeNode></feMerge></filter></defs><g filter="url(#editing-extrude-glow)"><g transform="translate(1.9087609648704529, 94.8650016784668)"><path d="M16.73-27.35L16.73-27.35L16.73-27.35Q26.77-27.35 26.77-20.25L26.77-20.25L26.77-20.25Q26.77-16.36 24.27-14.02L24.27-14.02L24.27-14.02Q21.81-11.69 17.51-11.69L17.51-11.69L17.51-11.69Q15.50-11.69 13.94-12.83L13.94-12.83L13.94-12.83Q13.20-13.33 12.71-13.98L12.71-13.98L12.71-13.98Q15.70-13.98 17.28-15.81L17.28-15.81L17.28-15.81Q18.86-17.63 18.86-21.20L18.86-21.20L18.86-21.20Q18.86-24.76 15.33-24.76L15.33-24.76L14.35-24.76L14.35-24.76Q14.10-24.76 13.90-24.72L13.90-24.72L9.18 0L0.29 0L5.33-26.86L5.33-26.86Q9.72-27.27 12.26-27.31L12.26-27.31L12.26-27.31Q14.80-27.35 16.73-27.35ZM28.76-1.23L28.76-1.23L28.76-1.23Q27.80-2.30 27.37-3.98L27.37-3.98L27.37-3.98Q26.94-5.66 26.94-8.41L26.94-8.41L26.94-8.41Q26.94-11.15 27.88-13.65L27.88-13.65L27.88-13.65Q28.82-16.15 30.55-17.96L30.55-17.96L30.55-17.96Q34.07-21.73 39.89-21.73L39.89-21.73L39.89-21.73Q41.98-21.73 43.50-21.03L43.50-21.03L50.51-21.73L47.48-5.74L47.48-5.74Q47.36-5.25 47.36-4.35L47.36-4.35L47.36-4.35Q47.36-3.44 47.91-2.87L47.91-2.87L47.91-2.87Q48.46-2.30 49.28-2.21L49.28-2.21L49.28-2.21Q48.87-0.82 47.38 0L47.38 0L47.38 0Q45.88 0.82 44.20 0.82L44.20 0.82L44.20 0.82Q42.52 0.82 41.39 0.18L41.39 0.18L41.39 0.18Q40.26-0.45 39.93-1.52L39.93-1.52L39.93-1.52Q39.28-0.49 37.88 0.16L37.88 0.16L37.88 0.16Q36.49 0.82 34.62 0.82L34.62 0.82L34.62 0.82Q32.76 0.82 31.24 0.33L31.24 0.33L31.24 0.33Q29.73-0.16 28.76-1.23ZM37.41-17.88L37.41-17.88L37.41-17.88Q36.94-17.14 36.53-15.89L36.53-15.89L36.53-15.89Q36.12-14.64 35.44-11.30L35.44-11.30L35.44-11.30Q34.77-7.95 34.77-5.58L34.77-5.58L34.77-5.58Q34.77-3.20 35.14-2.50L35.14-2.50L35.14-2.50Q35.51-1.80 36.16-1.80L36.16-1.80L36.16-1.80Q37.47-1.80 38.44-3.05L38.44-3.05L38.44-3.05Q39.40-4.31 39.77-6.52L39.77-6.52L41.94-18.53L41.94-18.53Q41.08-19.27 40.08-19.27L40.08-19.27L40.08-19.27Q39.07-19.27 38.48-18.94L38.48-18.94L38.48-18.94Q37.88-18.61 37.41-17.88ZM65.56-11.52L65.56-11.52L65.56-11.52Q67.03-14.15 67.03-16.81L67.03-16.81L67.03-16.81Q67.03-18.57 65.76-18.57L65.76-18.57L65.76-18.57Q64.78-18.57 63.76-16.89L63.76-16.89L63.76-16.89Q62.69-15.21 62.36-13.04L62.36-13.04L60.23 0L51.74 0.82L55.92-20.91L62.69-21.73L61.95-17.59L61.95-17.59Q63.96-21.73 68.47-21.73L68.47-21.73L68.47-21.73Q70.85-21.73 72.14-20.50L72.14-20.50L72.14-20.50Q73.43-19.27 73.43-16.75L73.43-16.75L73.43-16.75Q73.43-14.23 71.77-12.63L71.77-12.63L71.77-12.63Q70.11-11.03 67.28-11.03L67.28-11.03L67.28-11.03Q66.05-11.03 65.56-11.52ZM92.37-2.25L92.37-2.25L92.37-2.25Q91.10 0.82 87.04 0.82L87.04 0.82L87.04 0.82Q84.95 0.82 83.64-0.61L83.64-0.61L83.64-0.61Q82.53-1.89 82.53-3.16L82.53-3.16L82.53-3.16Q82.53-6.48 84.05-12.96L84.05-12.96L85.57-20.91L93.89-21.73L91.39-8.77L91.39-8.77Q90.69-5.74 90.69-4.67L90.69-4.67L90.69-4.67Q90.69-2.34 92.37-2.25ZM86.30-26.61L86.30-26.61L86.30-26.61Q86.30-28.21 87.64-29.07L87.64-29.07L87.64-29.07Q88.97-29.93 90.90-29.93L90.90-29.93L90.90-29.93Q92.82-29.93 93.99-29.07L93.99-29.07L93.99-29.07Q95.16-28.21 95.16-26.61L95.16-26.61L95.16-26.61Q95.16-25.01 93.87-24.19L93.87-24.19L93.87-24.19Q92.58-23.37 90.65-23.37L90.65-23.37L90.65-23.37Q88.72-23.37 87.51-24.19L87.51-24.19L87.51-24.19Q86.30-25.01 86.30-26.61ZM115.99-17.06L115.99-17.06L115.99-17.06Q115.99-15.33 114.55-14.27L114.55-14.27L114.55-14.27Q113.12-13.20 110.78-13.20L110.78-13.20L110.78-13.20Q109.80-13.20 109.22-13.49L109.22-13.49L109.22-13.49Q109.67-14.56 109.82-15.89L109.82-15.89L109.82-15.89Q109.96-17.22 109.96-17.59L109.96-17.59L109.96-17.59Q109.96-19.31 108.77-19.31L108.77-19.31L108.77-19.31Q107.95-19.31 107.03-18.29L107.03-18.29L107.03-18.29Q106.11-17.26 105.33-15.66L105.33-15.66L105.33-15.66Q103.61-11.97 103.61-8.24L103.61-8.24L103.61-8.24Q103.61-6.19 104.39-5.27L104.39-5.27L104.39-5.27Q105.17-4.35 106.89-4.35L106.89-4.35L106.89-4.35Q109.27-4.35 111.15-6.31L111.15-6.31L111.15-6.31Q111.68-6.93 111.97-7.63L111.97-7.63L111.97-7.63Q113.53-6.81 113.53-4.55L113.53-4.55L113.53-4.55Q113.53-2.25 110.99-0.74L110.99-0.74L110.99-0.74Q108.36 0.82 104.18 0.82L104.18 0.82L104.18 0.82Q95.86 0.82 95.86-8.00L95.86-8.00L95.86-8.00Q95.86-14.43 99.51-18.12L99.51-18.12L99.51-18.12Q103.03-21.73 109.51-21.73L109.51-21.73L109.51-21.73Q115.99-21.73 115.99-17.06ZM126.94-2.25L126.94-2.25L126.94-2.25Q125.67 0.82 121.61 0.82L121.61 0.82L121.61 0.82Q119.52 0.82 118.20-0.61L118.20-0.61L118.20-0.61Q117.10-1.89 117.10-3.16L117.10-3.16L117.10-3.16Q117.10-6.48 118.61-12.96L118.61-12.96L120.13-20.91L128.45-21.73L125.95-8.77L125.95-8.77Q125.25-5.74 125.25-4.67L125.25-4.67L125.25-4.67Q125.25-2.34 126.94-2.25ZM120.87-26.61L120.87-26.61L120.87-26.61Q120.87-28.21 122.20-29.07L122.20-29.07L122.20-29.07Q123.53-29.93 125.46-29.93L125.46-29.93L125.46-29.93Q127.39-29.93 128.56-29.07L128.56-29.07L128.56-29.07Q129.72-28.21 129.72-26.61L129.72-26.61L129.72-26.61Q129.72-25.01 128.43-24.19L128.43-24.19L128.43-24.19Q127.14-23.37 125.21-23.37L125.21-23.37L125.21-23.37Q123.29-23.37 122.08-24.19L122.08-24.19L122.08-24.19Q120.87-25.01 120.87-26.61ZM148.67-2.25L148.67-2.25L148.67-2.25Q147.39 0.82 143.34 0.82L143.34 0.82L143.34 0.82Q141.29 0.82 139.97-0.61L139.97-0.61L139.97-0.61Q138.91-1.80 138.91-3.16L138.91-3.16L138.91-3.16Q138.91-6.23 140.34-12.96L140.34-12.96L143.34-28.70L151.66-29.52L147.68-8.77L147.68-8.77Q146.98-5.74 146.98-4.67L146.98-4.67L146.98-4.67Q146.98-2.34 148.67-2.25ZM168.76-6.93L168.76-6.93L168.76-6.93Q169.78-6.23 169.78-4.69L169.78-4.69L169.78-4.69Q169.78-3.16 169.00-2.17L169.00-2.17L169.00-2.17Q168.22-1.19 166.95-0.53L166.95-0.53L166.95-0.53Q164.33 0.82 161.50 0.82L161.50 0.82L161.50 0.82Q158.67 0.82 157.01 0.21L157.01 0.21L157.01 0.21Q155.35-0.41 154.24-1.56L154.24-1.56L154.24-1.56Q152.07-3.73 152.07-7.71L152.07-7.71L152.07-7.71Q152.07-13.90 155.43-17.67L155.43-17.67L155.43-17.67Q159.04-21.73 165.31-21.73L165.31-21.73L165.31-21.73Q169.21-21.73 171.13-20.09L171.13-20.09L171.13-20.09Q172.57-18.86 172.57-16.85L172.57-16.85L172.57-16.85Q172.57-9.63 160.10-9.63L160.10-9.63L160.10-9.63Q159.94-8.57 159.94-7.67L159.94-7.67L159.94-7.67Q159.94-5.78 160.78-5.06L160.78-5.06L160.78-5.06Q161.62-4.35 163.18-4.35L163.18-4.35L163.18-4.35Q164.74-4.35 166.40-5.06L166.40-5.06L166.40-5.06Q168.06-5.78 168.76-6.93ZM160.39-11.40L160.39-11.40L160.39-11.40Q163.30-11.40 164.98-13.20L164.98-13.20L164.98-13.20Q166.66-14.92 166.66-17.67L166.66-17.67L166.66-17.67Q166.66-18.61 166.32-19.13L166.32-19.13L166.32-19.13Q165.97-19.64 165.27-19.64L165.27-19.64L165.27-19.64Q164.57-19.64 163.98-19.37L163.98-19.37L163.98-19.37Q163.38-19.11 162.77-18.20L162.77-18.20L162.77-18.20Q161.25-16.15 160.39-11.40ZM186.22-14.39L186.22-14.39L186.22-14.39Q186.80-15.91 186.80-17.22L186.80-17.22L186.80-17.22Q186.80-19.64 184.83-19.64L184.83-19.64L184.83-19.64Q183.80-19.64 182.96-18.72L182.96-18.72L182.96-18.72Q182.12-17.79 182.12-16.65L182.12-16.65L182.12-16.65Q182.12-15.83 182.78-15.17L182.78-15.17L182.78-15.17Q183.72-14.27 186.14-12.79L186.14-12.79L186.14-12.79Q188.56-11.32 189.48-10.11L189.48-10.11L189.48-10.11Q190.40-8.90 190.40-7.24L190.40-7.24L190.40-7.24Q190.40-5.58 189.60-4.06L189.60-4.06L189.60-4.06Q188.81-2.54 187.37-1.48L187.37-1.48L187.37-1.48Q184.29 0.82 179.38 0.82L179.38 0.82L179.38 0.82Q176.71 0.82 174.66-0.57L174.66-0.57L174.66-0.57Q172.61-1.93 172.61-3.53L172.61-3.53L172.61-3.53Q172.61-5.13 173.78-6.07L173.78-6.07L173.78-6.07Q174.95-7.01 176.67-7.01L176.67-7.01L176.67-7.01Q178.39-7.01 179.46-6.36L179.46-6.36L179.46-6.36Q178.92-5.00 178.92-4.10L178.92-4.10L178.92-4.10Q178.92-1.39 181.22-1.39L181.22-1.39L181.22-1.39Q182.20-1.39 182.86-2.01L182.86-2.01L182.86-2.01Q183.52-2.62 183.52-3.69L183.52-3.69L183.52-3.69Q183.52-5.78 179.99-8.00L179.99-8.00L179.99-8.00Q177.12-9.88 176.46-10.62L176.46-10.62L176.46-10.62Q175.36-11.93 175.36-13.57L175.36-13.57L175.36-13.57Q175.36-15.21 176.14-16.77L176.14-16.77L176.14-16.77Q176.91-18.33 178.35-19.43L178.35-19.43L178.35-19.43Q181.34-21.73 186.55-21.73L186.55-21.73L186.55-21.73Q189.22-21.73 190.79-20.66L190.79-20.66L190.79-20.66Q192.37-19.60 192.37-17.79L192.37-17.79L192.37-17.79Q192.37-15.99 191.29-14.96L191.29-14.96L191.29-14.96Q190.20-13.94 188.23-13.94L188.23-13.94L188.23-13.94Q186.88-13.94 186.22-14.39ZM221.44-2.81L221.44-2.81L221.44-2.81Q219.72-1.07 217.36-0.12L217.36-0.12L217.36-0.12Q215.00 0.82 212.67 0.82L212.67 0.82L212.67 0.82Q210.33 0.82 209.51 0.41L209.51 0.41L208.24 7.38L199.92 8.20L205.57-20.91L212.26-21.61L211.72-18.78L211.72-18.78Q213.45-21.69 217.01-21.69L217.01-21.69L217.01-21.69Q221.03-21.69 223.16-19.11L223.16-19.11L223.16-19.11Q225.05-16.77 225.05-13.20L225.05-13.20L225.05-13.20Q225.05-9.63 224.11-7.09L224.11-7.09L224.11-7.09Q223.16-4.55 221.44-2.81ZM212.18-14.31L210.00-2.30L210.00-2.30Q210.86-1.56 211.93-1.56L211.93-1.56L211.93-1.56Q213.00-1.56 213.61-1.97L213.61-1.97L213.61-1.97Q214.22-2.38 214.68-3.20L214.68-3.20L214.68-3.20Q215.91-5.41 216.89-12.14L216.89-12.14L216.89-12.14Q217.18-14.10 217.18-16.03L217.18-16.03L217.18-16.03Q217.18-17.96 216.75-18.57L216.75-18.57L216.75-18.57Q216.32-19.19 215.50-19.19L215.50-19.19L215.50-19.19Q213.00-19.19 212.18-14.31L212.18-14.31ZM240.34-11.52L240.34-11.52L240.34-11.52Q241.82-14.15 241.82-16.81L241.82-16.81L241.82-16.81Q241.82-18.57 240.55-18.57L240.55-18.57L240.55-18.57Q239.56-18.57 238.54-16.89L238.54-16.89L238.54-16.89Q237.47-15.21 237.14-13.04L237.14-13.04L235.01 0L226.53 0.82L230.71-20.91L237.47-21.73L236.73-17.59L236.73-17.59Q238.74-21.73 243.25-21.73L243.25-21.73L243.25-21.73Q245.63-21.73 246.92-20.50L246.92-20.50L246.92-20.50Q248.21-19.27 248.21-16.75L248.21-16.75L248.21-16.75Q248.21-14.23 246.55-12.63L246.55-12.63L246.55-12.63Q244.89-11.03 242.06-11.03L242.06-11.03L242.06-11.03Q240.83-11.03 240.34-11.52ZM265.48-6.93L265.48-6.93L265.48-6.93Q266.50-6.23 266.50-4.69L266.50-4.69L266.50-4.69Q266.50-3.16 265.72-2.17L265.72-2.17L265.72-2.17Q264.94-1.19 263.67-0.53L263.67-0.53L263.67-0.53Q261.05 0.82 258.22 0.82L258.22 0.82L258.22 0.82Q255.39 0.82 253.73 0.21L253.73 0.21L253.73 0.21Q252.07-0.41 250.96-1.56L250.96-1.56L250.96-1.56Q248.79-3.73 248.79-7.71L248.79-7.71L248.79-7.71Q248.79-13.90 252.15-17.67L252.15-17.67L252.15-17.67Q255.76-21.73 262.03-21.73L262.03-21.73L262.03-21.73Q265.93-21.73 267.85-20.09L267.85-20.09L267.85-20.09Q269.29-18.86 269.29-16.85L269.29-16.85L269.29-16.85Q269.29-9.63 256.82-9.63L256.82-9.63L256.82-9.63Q256.66-8.57 256.66-7.67L256.66-7.67L256.66-7.67Q256.66-5.78 257.50-5.06L257.50-5.06L257.50-5.06Q258.34-4.35 259.90-4.35L259.90-4.35L259.90-4.35Q261.46-4.35 263.12-5.06L263.12-5.06L263.12-5.06Q264.78-5.78 265.48-6.93ZM257.11-11.40L257.11-11.40L257.11-11.40Q260.02-11.40 261.70-13.20L261.70-13.20L261.70-13.20Q263.38-14.92 263.38-17.67L263.38-17.67L263.38-17.67Q263.38-18.61 263.04-19.13L263.04-19.13L263.04-19.13Q262.69-19.64 261.99-19.64L261.99-19.64L261.99-19.64Q261.29-19.64 260.70-19.37L260.70-19.37L260.70-19.37Q260.10-19.11 259.49-18.20L259.49-18.20L259.49-18.20Q257.97-16.15 257.11-11.40ZM258.38-25.54L268.06-31.53L268.06-31.53Q269.53-30.96 269.53-28.82L269.53-28.82L269.53-28.82Q269.53-27.02 267.81-25.87L267.81-25.87L267.81-25.87Q266.38-24.89 264.29-24.52L264.29-24.52L259.24-23.57L258.38-25.54ZM282.94-14.39L282.94-14.39L282.94-14.39Q283.51-15.91 283.51-17.22L283.51-17.22L283.51-17.22Q283.51-19.64 281.55-19.64L281.55-19.64L281.55-19.64Q280.52-19.64 279.68-18.72L279.68-18.72L279.68-18.72Q278.84-17.79 278.84-16.65L278.84-16.65L278.84-16.65Q278.84-15.83 279.50-15.17L279.50-15.17L279.50-15.17Q280.44-14.27 282.86-12.79L282.86-12.79L282.86-12.79Q285.28-11.32 286.20-10.11L286.20-10.11L286.20-10.11Q287.12-8.90 287.12-7.24L287.12-7.24L287.12-7.24Q287.12-5.58 286.32-4.06L286.32-4.06L286.32-4.06Q285.52-2.54 284.09-1.48L284.09-1.48L284.09-1.48Q281.01 0.82 276.09 0.82L276.09 0.82L276.09 0.82Q273.43 0.82 271.38-0.57L271.38-0.57L271.38-0.57Q269.33-1.93 269.33-3.53L269.33-3.53L269.33-3.53Q269.33-5.13 270.50-6.07L270.50-6.07L270.50-6.07Q271.67-7.01 273.39-7.01L273.39-7.01L273.39-7.01Q275.11-7.01 276.18-6.36L276.18-6.36L276.18-6.36Q275.64-5.00 275.64-4.10L275.64-4.10L275.64-4.10Q275.64-1.39 277.94-1.39L277.94-1.39L277.94-1.39Q278.92-1.39 279.58-2.01L279.58-2.01L279.58-2.01Q280.24-2.62 280.24-3.69L280.24-3.69L280.24-3.69Q280.24-5.78 276.71-8.00L276.71-8.00L276.71-8.00Q273.84-9.88 273.18-10.62L273.18-10.62L273.18-10.62Q272.08-11.93 272.08-13.57L272.08-13.57L272.08-13.57Q272.08-15.21 272.86-16.77L272.86-16.77L272.86-16.77Q273.63-18.33 275.07-19.43L275.07-19.43L275.07-19.43Q278.06-21.73 283.27-21.73L283.27-21.73L283.27-21.73Q285.93-21.73 287.51-20.66L287.51-20.66L287.51-20.66Q289.09-19.60 289.09-17.79L289.09-17.79L289.09-17.79Q289.09-15.99 288.00-14.96L288.00-14.96L288.00-14.96Q286.92-13.94 284.95-13.94L284.95-13.94L284.95-13.94Q283.60-13.94 282.94-14.39ZM307.21-6.93L307.21-6.93L307.21-6.93Q308.24-6.23 308.24-4.69L308.24-4.69L308.24-4.69Q308.24-3.16 307.46-2.17L307.46-2.17L307.46-2.17Q306.68-1.19 305.41-0.53L305.41-0.53L305.41-0.53Q302.79 0.82 299.96 0.82L299.96 0.82L299.96 0.82Q297.13 0.82 295.47 0.21L295.47 0.21L295.47 0.21Q293.81-0.41 292.70-1.56L292.70-1.56L292.70-1.56Q290.53-3.73 290.53-7.71L290.53-7.71L290.53-7.71Q290.53-13.90 293.89-17.67L293.89-17.67L293.89-17.67Q297.50-21.73 303.77-21.73L303.77-21.73L303.77-21.73Q307.66-21.73 309.59-20.09L309.59-20.09L309.59-20.09Q311.03-18.86 311.03-16.85L311.03-16.85L311.03-16.85Q311.03-9.63 298.56-9.63L298.56-9.63L298.56-9.63Q298.40-8.57 298.40-7.67L298.40-7.67L298.40-7.67Q298.40-5.78 299.24-5.06L299.24-5.06L299.24-5.06Q300.08-4.35 301.64-4.35L301.64-4.35L301.64-4.35Q303.19-4.35 304.86-5.06L304.86-5.06L304.86-5.06Q306.52-5.78 307.21-6.93ZM298.85-11.40L298.85-11.40L298.85-11.40Q301.76-11.40 303.44-13.20L303.44-13.20L303.44-13.20Q305.12-14.92 305.12-17.67L305.12-17.67L305.12-17.67Q305.12-18.61 304.77-19.13L304.77-19.13L304.77-19.13Q304.43-19.64 303.73-19.64L303.73-19.64L303.73-19.64Q303.03-19.64 302.44-19.37L302.44-19.37L302.44-19.37Q301.84-19.11 301.23-18.20L301.23-18.20L301.23-18.20Q299.71-16.15 298.85-11.40ZM329.76 0.82L329.76 0.82L329.76 0.82Q324.80 0.82 324.80-3.03L324.80-3.03L324.80-3.03Q324.84-4.10 325.17-5.90L325.17-5.90L325.91-9.68L325.91-9.68Q327.02-15.01 327.02-16.20L327.02-16.20L327.02-16.20Q327.02-18.57 325.62-18.57L325.62-18.57L325.62-18.57Q323.29-18.57 322.06-12.46L322.06-12.46L319.64 0L311.40 0.82L315.66-20.95L322.38-21.73L321.73-17.71L321.73-17.71Q323.65-21.73 329.56-21.73L329.56-21.73L329.56-21.73Q332.43-21.73 333.64-20.52L333.64-20.52L333.64-20.52Q334.85-19.31 334.85-16.61L334.85-16.61L334.85-16.61Q334.85-14.06 333.54-8.12L333.54-8.12L333.54-8.12Q332.92-5.45 332.92-4.45L332.92-4.45L332.92-4.45Q332.92-3.44 333.47-2.87L333.47-2.87L333.47-2.87Q334.03-2.30 334.85-2.21L334.85-2.21L334.85-2.21Q334.44-0.82 333.02 0L333.02 0L333.02 0Q331.61 0.82 329.76 0.82ZM338.78-4.10L338.78-4.10L338.78-4.10Q338.78-5.21 339.36-8.00L339.36-8.00L341.53-19.07L339.11-19.07L339.28-20.30L339.28-20.30Q344.19-21.77 348.95-25.38L348.95-25.38L350.92-25.38L349.94-20.91L353.13-20.91L352.76-19.07L349.61-19.07L347.52-8.00L347.52-8.00Q346.98-5.45 346.98-4.59L346.98-4.59L346.98-4.59Q346.98-2.62 348.70-2.21L348.70-2.21L348.70-2.21Q348.30-0.82 346.82 0L346.82 0L346.82 0Q345.34 0.82 343.25 0.82L343.25 0.82L343.25 0.82Q341.16 0.82 339.97-0.49L339.97-0.49L339.97-0.49Q338.78-1.80 338.78-4.10ZM354.55-1.23L354.55-1.23L354.55-1.23Q353.58-2.30 353.15-3.98L353.15-3.98L353.15-3.98Q352.72-5.66 352.72-8.41L352.72-8.41L352.72-8.41Q352.72-11.15 353.67-13.65L353.67-13.65L353.67-13.65Q354.61-16.15 356.33-17.96L356.33-17.96L356.33-17.96Q359.86-21.73 365.68-21.73L365.68-21.73L365.68-21.73Q367.77-21.73 369.29-21.03L369.29-21.03L376.30-21.73L373.26-5.74L373.26-5.74Q373.14-5.25 373.14-4.35L373.14-4.35L373.14-4.35Q373.14-3.44 373.69-2.87L373.69-2.87L373.69-2.87Q374.25-2.30 375.07-2.21L375.07-2.21L375.07-2.21Q374.66-0.82 373.16 0L373.16 0L373.16 0Q371.67 0.82 369.98 0.82L369.98 0.82L369.98 0.82Q368.30 0.82 367.18 0.18L367.18 0.18L367.18 0.18Q366.05-0.45 365.72-1.52L365.72-1.52L365.72-1.52Q365.06-0.49 363.67 0.16L363.67 0.16L363.67 0.16Q362.28 0.82 360.41 0.82L360.41 0.82L360.41 0.82Q358.55 0.82 357.03 0.33L357.03 0.33L357.03 0.33Q355.51-0.16 354.55-1.23ZM363.20-17.88L363.20-17.88L363.20-17.88Q362.73-17.14 362.32-15.89L362.32-15.89L362.32-15.89Q361.91-14.64 361.23-11.30L361.23-11.30L361.23-11.30Q360.55-7.95 360.55-5.58L360.55-5.58L360.55-5.58Q360.55-3.20 360.92-2.50L360.92-2.50L360.92-2.50Q361.29-1.80 361.95-1.80L361.95-1.80L361.95-1.80Q363.26-1.80 364.22-3.05L364.22-3.05L364.22-3.05Q365.19-4.31 365.56-6.52L365.56-6.52L367.73-18.53L367.73-18.53Q366.87-19.27 365.86-19.27L365.86-19.27L365.86-19.27Q364.86-19.27 364.26-18.94L364.26-18.94L364.26-18.94Q363.67-18.61 363.20-17.88ZM379.17-4.10L379.17-4.10L379.17-4.10Q379.17-5.21 379.74-8.00L379.74-8.00L381.92-19.07L379.50-19.07L379.66-20.30L379.66-20.30Q384.58-21.77 389.34-25.38L389.34-25.38L391.30-25.38L390.32-20.91L393.52-20.91L393.15-19.07L389.99-19.07L387.90-8.00L387.90-8.00Q387.37-5.45 387.37-4.59L387.37-4.59L387.37-4.59Q387.37-2.62 389.09-2.21L389.09-2.21L389.09-2.21Q388.68-0.82 387.20 0L387.20 0L387.20 0Q385.73 0.82 383.64 0.82L383.64 0.82L383.64 0.82Q381.55 0.82 380.36-0.49L380.36-0.49L380.36-0.49Q379.17-1.80 379.17-4.10ZM403.15-2.25L403.15-2.25L403.15-2.25Q401.88 0.82 397.82 0.82L397.82 0.82L397.82 0.82Q395.73 0.82 394.42-0.61L394.42-0.61L394.42-0.61Q393.31-1.89 393.31-3.16L393.31-3.16L393.31-3.16Q393.31-6.48 394.83-12.96L394.83-12.96L396.35-20.91L404.67-21.73L402.17-8.77L402.17-8.77Q401.47-5.74 401.47-4.67L401.47-4.67L401.47-4.67Q401.47-2.34 403.15-2.25ZM397.08-26.61L397.08-26.61L397.08-26.61Q397.08-28.21 398.42-29.07L398.42-29.07L398.42-29.07Q399.75-29.93 401.68-29.93L401.68-29.93L401.68-29.93Q403.60-29.93 404.77-29.07L404.77-29.07L404.77-29.07Q405.94-28.21 405.94-26.61L405.94-26.61L405.94-26.61Q405.94-25.01 404.65-24.19L404.65-24.19L404.65-24.19Q403.36-23.37 401.43-23.37L401.43-23.37L401.43-23.37Q399.50-23.37 398.29-24.19L398.29-24.19L398.29-24.19Q397.08-25.01 397.08-26.61ZM415.58 0.82L415.58 0.82L415.58 0.82Q406.56 0.82 406.56-7.67L406.56-7.67L406.56-7.67Q406.56-13.69 409.88-17.59L409.88-17.59L409.88-17.59Q413.40-21.73 419.51-21.73L419.51-21.73L419.51-21.73Q423.94-21.73 426.19-19.68L426.19-19.68L426.19-19.68Q428.45-17.63 428.45-13.33L428.45-13.33L428.45-13.33Q428.45-6.77 424.92-2.95L424.92-2.95L424.92-2.95Q421.48 0.82 415.58 0.82ZM416.64-17.02L416.64-17.02L416.64-17.02Q416.15-15.91 415.76-14.25L415.76-14.25L415.76-14.25Q415.37-12.59 414.88-9.96L414.88-9.96L414.88-9.96Q414.39-7.34 414.39-4.10L414.39-4.10L414.39-4.10Q414.39-3.03 414.74-2.34L414.74-2.34L414.74-2.34Q415.08-1.64 416.03-1.64L416.03-1.64L416.03-1.64Q416.97-1.64 417.56-2.09L417.56-2.09L417.56-2.09Q418.16-2.54 418.61-3.61L418.61-3.61L418.61-3.61Q419.43-5.49 420.09-9.00L420.09-9.00L420.09-9.00Q420.74-12.51 420.80-14.02L420.80-14.02L420.80-14.02Q420.86-15.54 420.86-16.67L420.86-16.67L420.86-16.67Q420.86-17.79 420.54-18.53L420.54-18.53L420.54-18.53Q420.21-19.27 419.29-19.27L419.29-19.27L419.29-19.27Q418.36-19.27 417.75-18.70L417.75-18.70L417.75-18.70Q417.13-18.12 416.64-17.02ZM448.21 0.82L448.21 0.82L448.21 0.82Q443.25 0.82 443.25-3.03L443.25-3.03L443.25-3.03Q443.29-4.10 443.62-5.90L443.62-5.90L444.36-9.68L444.36-9.68Q445.46-15.01 445.46-16.20L445.46-16.20L445.46-16.20Q445.46-18.57 444.07-18.57L444.07-18.57L444.07-18.57Q441.73-18.57 440.50-12.46L440.50-12.46L438.08 0L429.84 0.82L434.11-20.95L440.83-21.73L440.18-17.71L440.18-17.71Q442.10-21.73 448.01-21.73L448.01-21.73L448.01-21.73Q450.88-21.73 452.09-20.52L452.09-20.52L452.09-20.52Q453.30-19.31 453.30-16.61L453.30-16.61L453.30-16.61Q453.30-14.06 451.98-8.12L451.98-8.12L451.98-8.12Q451.37-5.45 451.37-4.45L451.37-4.45L451.37-4.45Q451.37-3.44 451.92-2.87L451.92-2.87L451.92-2.87Q452.48-2.30 453.30-2.21L453.30-2.21L453.30-2.21Q452.89-0.82 451.47 0L451.47 0L451.47 0Q450.06 0.82 448.21 0.82ZM468.83-14.39L468.83-14.39L468.83-14.39Q469.41-15.91 469.41-17.22L469.41-17.22L469.41-17.22Q469.41-19.64 467.44-19.64L467.44-19.64L467.44-19.64Q466.42-19.64 465.58-18.72L465.58-18.72L465.58-18.72Q464.73-17.79 464.73-16.65L464.73-16.65L464.73-16.65Q464.73-15.83 465.39-15.17L465.39-15.17L465.39-15.17Q466.33-14.27 468.75-12.79L468.75-12.79L468.75-12.79Q471.17-11.32 472.09-10.11L472.09-10.11L472.09-10.11Q473.02-8.90 473.02-7.24L473.02-7.24L473.02-7.24Q473.02-5.58 472.22-4.06L472.22-4.06L472.22-4.06Q471.42-2.54 469.98-1.48L469.98-1.48L469.98-1.48Q466.91 0.82 461.99 0.82L461.99 0.82L461.99 0.82Q459.32 0.82 457.27-0.57L457.27-0.57L457.27-0.57Q455.22-1.93 455.22-3.53L455.22-3.53L455.22-3.53Q455.22-5.13 456.39-6.07L456.39-6.07L456.39-6.07Q457.56-7.01 459.28-7.01L459.28-7.01L459.28-7.01Q461.00-7.01 462.07-6.36L462.07-6.36L462.07-6.36Q461.54-5.00 461.54-4.10L461.54-4.10L461.54-4.10Q461.54-1.39 463.83-1.39L463.83-1.39L463.83-1.39Q464.82-1.39 465.47-2.01L465.47-2.01L465.47-2.01Q466.13-2.62 466.13-3.69L466.13-3.69L466.13-3.69Q466.13-5.78 462.60-8.00L462.60-8.00L462.60-8.00Q459.73-9.88 459.08-10.62L459.08-10.62L459.08-10.62Q457.97-11.93 457.97-13.57L457.97-13.57L457.97-13.57Q457.97-15.21 458.75-16.77L458.75-16.77L458.75-16.77Q459.53-18.33 460.96-19.43L460.96-19.43L460.96-19.43Q463.96-21.73 469.16-21.73L469.16-21.73L469.16-21.73Q471.83-21.73 473.41-20.66L473.41-20.66L473.41-20.66Q474.98-19.60 474.98-17.79L474.98-17.79L474.98-17.79Q474.98-15.99 473.90-14.96L473.90-14.96L473.90-14.96Q472.81-13.94 470.84-13.94L470.84-13.94L470.84-13.94Q469.49-13.94 468.83-14.39ZM483.84-2.42L483.84-2.42L483.84-2.42Q483.84-3.98 485.01-4.82L485.01-4.82L485.01-4.82Q486.18-5.66 487.90-5.66L487.90-5.66L487.90-5.66Q489.62-5.66 490.71-4.82L490.71-4.82L490.71-4.82Q491.79-3.98 491.79-2.42L491.79-2.42L491.79-2.42Q491.79-0.86 490.59 0L490.59 0L490.59 0Q489.38 0.86 487.65 0.86L487.65 0.86L487.65 0.86Q485.93 0.86 484.89 0L484.89 0L484.89 0Q483.84-0.86 483.84-2.42ZM486.05-10.13L486.05-10.13L486.05-10.13Q486.05-10.41 486.14-10.82L486.14-10.82L489.33-27.31L489.33-27.31Q490.85-27.88 492.66-27.88L492.66-27.88L492.66-27.88Q494.46-27.88 495.40-26.73L495.40-26.73L495.40-26.73Q496.35-25.58 496.35-23.88L496.35-23.88L496.35-23.88Q496.35-22.18 495.69-20.27L495.69-20.27L495.69-20.27Q495.03-18.37 494.23-16.44L494.23-16.44L494.23-16.44Q493.44-14.51 492.76-12.53L492.76-12.53L492.76-12.53Q492.08-10.54 492.04-8.45L492.04-8.45L492.04-8.45Q491.10-7.38 489.46-7.38L489.46-7.38L489.46-7.38Q487.82-7.38 486.94-8.14L486.94-8.14L486.94-8.14Q486.05-8.90 486.05-10.13Z" fill="#ffffff"></path></g></g><style>text {
  font-size: 64px;
  font-family: Arial Black;
  dominant-baseline: central;
  text-anchor: middle;
}</style></svg>